rotated_Sprint_05400001_forces_filt50Hz.mot
version=1
nRows=52
nColumns=19
inDegrees=yes
endheader
time	R_ground_force_vx	R_ground_force_vy	R_ground_force_vz	R_ground_force_px	R_ground_force_py	R_ground_force_pz	R_ground_torque_x	R_ground_torque_y	R_ground_torque_z	L_ground_force_vx	L_ground_force_vy	L_ground_force_vz	L_ground_force_px	L_ground_force_py	L_ground_force_pz	L_ground_torque_x	L_ground_torque_y	L_ground_torque_z	
2.714500	  0.000000	  0.000000	  0.000000	  0.137913	  0.000000	 -0.509961	  0.000000	  0.000000	  0.000000	-51.541303	110.536295	-18.137418	  1.002557	 -0.000000	 -0.166952	  0.000000	 -4.856050	  0.000000
2.715000	  0.000000	  0.000000	  0.000000	  0.139420	  0.000000	 -0.511037	  0.000000	  0.000000	  0.000000	-56.194623	125.308266	-16.907452	  1.010244	 -0.000000	 -0.207976	  0.000000	 -4.805252	  0.000000
2.715500	  0.000000	  0.000000	  0.000000	  0.141022	  0.000000	 -0.511833	  0.000000	  0.000000	  0.000000	-61.015102	140.935415	-15.514687	  1.017931	 -0.000000	 -0.249000	  0.000000	 -4.750790	  0.000000
2.716000	  0.000000	  0.000000	  0.000000	  0.142624	  0.000000	 -0.512628	  0.000000	  0.000000	  0.000000	-65.997727	157.432673	-13.945479	  1.025618	  0.000000	 -0.290024	  0.000000	 -4.687886	  0.000000
2.716500	  0.000000	  0.000000	  0.000000	  0.144226	  0.000000	 -0.513424	  0.000000	  0.000000	  0.000000	-71.136501	174.812760	-12.185584	  1.033304	  0.000000	 -0.331049	  0.000000	 -4.612427	  0.000000
2.717000	  0.000000	  0.000000	  0.000000	  0.145828	  0.000000	 -0.514219	  0.000000	  0.000000	  0.000000	-76.424403	193.085936	-10.220255	  1.040991	  0.000000	 -0.372073	  0.000000	 -4.520795	  0.000000
2.717500	  0.000000	  0.000000	  0.000000	  0.147429	  0.000000	 -0.515015	  0.000000	  0.000000	  0.000000	-81.853324	212.259724	 -8.034373	  1.048678	  0.000000	 -0.413097	  0.000000	 -4.409745	  0.000000
2.718000	  0.000000	  0.000000	  0.000000	  0.149031	  0.000000	 -0.515811	  0.000000	  0.000000	  0.000000	-87.413988	232.338628	 -5.612575	  1.056365	  0.000000	 -0.454122	  0.000000	 -4.276290	  0.000000
2.718500	  0.000000	  0.000000	  0.000000	  0.150633	  0.000000	 -0.516606	  0.000000	  0.000000	  0.000000	-93.095861	253.323832	 -2.939412	  1.054959	  0.000000	 -0.450918	  0.000000	 -4.117611	  0.000000
2.719000	  0.000000	  0.000000	  0.000000	  0.152235	  0.000000	 -0.517402	  0.000000	  0.000000	  0.000000	-98.887053	275.212886	  0.000476	  1.053659	  0.000000	 -0.447931	  0.000000	 -3.930991	  0.000000
2.719500	  0.000000	  0.000000	  0.000000	  0.153837	  0.000000	 -0.518197	  0.000000	  0.000000	  0.000000	-104.774231	297.999381	  3.222150	  1.052451	  0.000000	 -0.445129	  0.000000	 -3.713783	  0.000000
2.720000	  0.000000	  0.000000	  0.000000	  0.155439	  0.000000	 -0.518993	  0.000000	  0.000000	  0.000000	-110.742566	321.672604	  6.740127	  1.051326	  0.000000	 -0.442486	  0.000000	 -3.463426	  0.000000
2.720500	  0.000000	  0.000000	  0.000000	  0.157156	  0.000000	 -0.519701	  0.000000	  0.000000	  0.000000	-116.775733	346.217188	 10.568128	  1.050274	  0.000000	 -0.439978	  0.000000	 -3.177505	  0.000000
2.721000	  0.000000	  0.000000	  0.000000	  0.158873	  0.000000	 -0.520409	  0.000000	  0.000000	  0.000000	-122.855979	371.612735	 14.718836	  1.049290	  0.000000	 -0.437586	  0.000000	 -2.853841	  0.000000
2.721500	  0.000000	  0.000000	  0.000000	  0.160589	  0.000000	 -0.521117	  0.000000	  0.000000	  0.000000	-128.964248	397.833442	 19.203672	  1.048368	  0.000000	 -0.435296	  0.000000	 -2.490596	  0.000000
2.722000	  0.000000	  0.000000	  0.000000	  0.162306	  0.000000	 -0.521825	  0.000000	  0.000000	  0.000000	-135.080392	424.847695	 24.032611	  1.047504	  0.000000	 -0.433092	  0.000000	 -2.086382	  0.000000
2.722500	  0.000000	  0.000000	  0.000000	  0.164023	  0.000000	 -0.522533	  0.000000	  0.000000	  0.000000	-141.183413	452.617669	 29.214008	  1.046694	  0.000000	 -0.430964	  0.000000	 -1.640354	  0.000000
2.723000	  0.000000	  0.000000	  0.000000	  0.165740	  0.000000	 -0.523240	  0.000000	  0.000000	  0.000000	-147.251755	481.099288	 34.754440	  1.045935	  0.000000	 -0.428902	  0.000000	 -1.152284	  0.000000
2.723500	  0.000000	  0.000000	  0.000000	  0.167457	  0.000000	 -0.523948	  0.000000	  0.000000	  0.000000	-153.263593	510.243334	 40.658540	  1.045224	  0.000000	 -0.426896	  0.000000	 -0.622619	  0.000000
2.724000	  0.000000	  0.000000	  0.000000	  0.169173	  0.000000	 -0.524656	  0.000000	  0.000000	  0.000000	-159.197112	539.997451	 46.928809	  1.044560	  0.000000	 -0.424941	  0.000000	 -0.052517	  0.000000
2.724500	  0.000000	  0.000000	  0.000000	  0.170890	  0.000000	 -0.525364	  0.000000	  0.000000	  0.000000	-165.030749	570.307771	 53.565402	  1.043941	  0.000000	 -0.423030	  0.000000	  0.556121	  0.000000
2.725000	  0.000000	  0.000000	  0.000000	  0.172607	  0.000000	 -0.526072	  0.000000	  0.000000	  0.000000	-170.743407	601.119772	 60.565867	  1.043363	  0.000000	 -0.421157	  0.000000	  1.200622	  0.000000
2.725500	  0.000000	  0.000000	  0.000000	  0.174398	  0.000000	 -0.526587	  0.000000	  0.000000	  0.000000	-176.314652	632.378896	 67.924859	  1.042825	  0.000000	 -0.419319	  0.000000	  1.877521	  0.000000
2.726000	  0.000000	  0.000000	  0.000000	  0.176190	  0.000000	 -0.527102	  0.000000	  0.000000	  0.000000	-181.724901	664.031134	 75.633849	  1.042325	  0.000000	 -0.417512	  0.000000	  2.582512	  0.000000
2.726500	  0.000000	  0.000000	  0.000000	  0.177981	  0.000000	 -0.527618	  0.000000	  0.000000	  0.000000	-186.955639	696.023572	 83.680859	  1.041858	  0.000000	 -0.415733	  0.000000	  3.310388	  0.000000
2.727000	  0.000000	  0.000000	  0.000000	  0.179773	  0.000000	 -0.528133	  0.000000	  0.000000	  0.000000	-191.989672	728.304859	 92.050266	  1.041424	  0.000000	 -0.413980	  0.000000	  4.054964	  0.000000
2.727500	  0.000000	  0.000000	  0.000000	  0.181564	  0.000000	 -0.528648	  0.000000	  0.000000	  0.000000	-196.811430	760.825585	100.722711	  1.041018	  0.000000	 -0.412251	  0.000000	  4.808969	  0.000000
2.728000	  0.000000	  0.000000	  0.000000	  0.183355	  0.000000	 -0.529163	  0.000000	  0.000000	  0.000000	-201.407326	793.538566	109.675124	  1.040638	  0.000000	 -0.410547	  0.000000	  5.563968	  0.000000
2.728500	  0.000000	  0.000000	  0.000000	  0.185147	  0.000000	 -0.529678	  0.000000	  0.000000	  0.000000	-205.766179	826.399049	118.880873	  1.040280	  0.000000	 -0.408866	  0.000000	  6.310301	  0.000000
2.729000	  0.000000	  0.000000	  0.000000	  0.186938	  0.000000	 -0.530194	  0.000000	  0.000000	  0.000000	-209.879674	859.364878	128.309996	  1.039940	  0.000000	 -0.407209	  0.000000	  7.037086	  0.000000
2.729500	  0.000000	  0.000000	  0.000000	  0.188730	  0.000000	 -0.530709	  0.000000	  0.000000	  0.000000	-213.742831	892.396678	137.929506	  1.039614	  0.000000	 -0.405577	  0.000000	  7.732291	  0.000000
2.730000	  0.000000	  0.000000	  0.000000	  0.190521	  0.000000	 -0.531224	  0.000000	  0.000000	  0.000000	-217.354456	925.458091	147.703705	  1.039299	  0.000000	 -0.403970	  0.000000	  8.382868	  0.000000
2.730500	  0.000000	  0.000000	  0.000000	  0.192603	  0.000000	 -0.531708	  0.000000	  0.000000	  0.000000	-220.717513	958.516066	157.594506	  1.038990	  0.000000	 -0.402389	  0.000000	  8.974932	  0.000000
2.731000	  0.000000	  0.000000	  0.000000	  0.194685	  0.000000	 -0.532192	  0.000000	  0.000000	  0.000000	-223.839390	991.541145	167.561736	  1.038680	  0.000000	 -0.400835	  0.000000	  9.493977	  0.000000
2.731500	  0.000000	  0.000000	  0.000000	  0.196766	  0.000000	 -0.532676	  0.000000	  0.000000	  0.000000	-226.732051	1024.507641	177.563432	  1.038364	  0.000000	 -0.399309	  0.000000	  9.925107	  0.000000
2.732000	  0.000000	  0.000000	  0.000000	  0.198848	  0.000000	 -0.533160	  0.000000	  0.000000	  0.000000	-229.412061	1057.393608	187.556154	  1.038035	  0.000000	 -0.397812	  0.000000	 10.253290	  0.000000
2.732500	  0.000000	  0.000000	  0.000000	  0.200930	  0.000000	 -0.533645	  0.000000	  0.000000	  0.000000	-231.900504	1090.180572	197.495321	  1.037684	  0.000000	 -0.396343	  0.000000	 10.463636	  0.000000
2.733000	  0.000000	  0.000000	  0.000000	  0.203012	  0.000000	 -0.534129	  0.000000	  0.000000	  0.000000	-234.222804	1122.853045	207.335594	  1.037302	  0.000000	 -0.394904	  0.000000	 10.541703	  0.000000
2.733500	  0.000000	  0.000000	  0.000000	  0.205094	  0.000000	 -0.534613	  0.000000	  0.000000	  0.000000	-236.408426	1155.397921	217.031280	  1.036880	  0.000000	 -0.393493	  0.000000	 10.473805	  0.000000
2.734000	  0.000000	  0.000000	  0.000000	  0.207175	  0.000000	 -0.535097	  0.000000	  0.000000	  0.000000	-238.490470	1187.803822	226.536744	  1.036406	  0.000000	 -0.392112	  0.000000	 10.247322	  0.000000
2.734500	  0.000000	  0.000000	  0.000000	  0.209257	  0.000000	 -0.535581	  0.000000	  0.000000	  0.000000	-240.505127	1220.060418	235.806793	  1.035873	  0.000000	 -0.390759	  0.000000	  9.850992	  0.000000
2.735000	  0.000000	  0.000000	  0.000000	  0.211339	  0.000000	 -0.536065	  0.000000	  0.000000	  0.000000	-242.490994	1252.157761	244.796997	  1.035269	  0.000000	 -0.389434	  0.000000	  9.275202	  0.000000
2.735500	  0.000000	  0.000000	  0.000000	  0.213079	  0.000000	 -0.536189	  0.000000	  0.000000	  0.000000	-244.488248	1284.085620	253.463937	  1.034587	  0.000000	 -0.388136	  0.000000	  8.512274	  0.000000
2.736000	  0.000000	  0.000000	  0.000000	  0.214820	  0.000000	 -0.536312	  0.000000	  0.000000	  0.000000	-246.537667	1315.832879	261.765332	  1.033821	  0.000000	 -0.386865	  0.000000	  7.556758	  0.000000
2.736500	  0.000000	  0.000000	  0.000000	  0.216560	  0.000000	 -0.536435	  0.000000	  0.000000	  0.000000	-248.679543	1347.387081	269.660070	  1.032964	  0.000000	 -0.385621	  0.000000	  6.405717	  0.000000
2.737000	  0.000000	  0.000000	  0.000000	  0.218301	  0.000000	 -0.536559	  0.000000	  0.000000	  0.000000	-250.952500	1378.734178	277.108141	  1.032014	  0.000000	 -0.384403	  0.000000	  5.058983	  0.000000
2.737500	  0.000000	  0.000000	  0.000000	  0.220041	  0.000000	 -0.536682	  0.000000	  0.000000	  0.000000	-253.392340	1409.858483	284.070507	  1.030967	  0.000000	 -0.383211	  0.000000	  3.519360	  0.000000
2.738000	  0.000000	  0.000000	  0.000000	  0.221781	  0.000000	 -0.536806	  0.000000	  0.000000	  0.000000	-256.030986	1440.742786	290.508977	  1.029825	  0.000000	 -0.382045	  0.000000	  1.792753	  0.000000
2.738500	  0.000000	  0.000000	  0.000000	  0.223522	  0.000000	 -0.536929	  0.000000	  0.000000	  0.000000	-258.895618	1471.368497	296.386118	  1.028588	  0.000000	 -0.380907	  0.000000	 -0.111784	  0.000000
2.739000	  0.000000	  0.000000	  0.000000	  0.225262	  0.000000	 -0.537053	  0.000000	  0.000000	  0.000000	-262.008060	1501.715731	301.665277	  1.027261	  0.000000	 -0.379797	  0.000000	 -2.182095	  0.000000
2.739500	  0.000000	  0.000000	  0.000000	  0.227003	  0.000000	 -0.537176	  0.000000	  0.000000	  0.000000	-265.384405	1531.763316	306.310700	  1.025848	  0.000000	 -0.378717	  0.000000	 -4.403072	  0.000000
2.740000	  0.000000	  0.000000	  0.000000	  0.228743	  0.000000	 -0.537300	  0.000000	  0.000000	  0.000000	-269.034862	1561.488730	310.287778	  1.024357	  0.000000	 -0.377666	  0.000000	 -6.756898	  0.000000
